#!OML:ASF F:\VICON\USERDATA\INSTALL\rory3\rory3.ASF
:FULLY-SPECIFIED
:DEGREES
27
root -0.4490807316094887 17.74634682025629 -15.563811297144694 3.8374914236666475 2.153281198640342 -4.184672167020649
lfemur -29.47460826653952 -4.922678293752647 -17.310540585137865
ltibia 22.904476397176435
lfoot 5.254846305663673 -6.204043163145808
ltoes -15.965562313747638
rfemur 8.684055047269084 8.19762194582576 34.90166662256041
rtibia 56.118174208545845
rfoot 22.67486837018734 -13.567387310264552
rtoes 17.205851919537842
lowerback nan 2.5189566207088108 4.701058781086546
upperback -1.569026251692582 3.9957757741825244 1.740644337099413
thorax -8.150378204252844 1.794342033604388 -1.6364832571022967
lowerneck -19.774306109407767 -4.937669174667047 -1.4468436688146875
upperneck 14.524823066917879 -7.246299211891624 2.1482751645096845
head 8.015074890543751 -3.167190733305714 0.23553911723952192
lclavicle -1.3183077930218361e-15 1.153296127403671e-14
lhumerus -67.6385257585491 -4.597542791714055 95.53002144462846
lradius 103.83157348936392
lwrist 34.099874178737
lhand -24.18391486612942 0.2173725384476306
lfingers nan
lthumb 2.3162567857288625 30.212783197298045
rclavicle -1.0737500448095372e-15 1.1754758163573312e-14
rhumerus -44.71349576499227 17.49107873501179 -100.77391416429163
rradius 116.50647932054567
rwrist -3.7867756505873427
rhand -19.071869108988228 nan
rfingers nan
rthumb 7.3188430543476635 12.357127031031034
28
root -0.4835394839483322 17.67001374594051 -14.704871786254154 3.479021756752392 2.112149176678165 -3.7810730234957504
lfemur -28.68915609826641 -3.93793391916596 -18.3498799676076
ltibia 22.515478706162547
lfoot 5.374533843616183 -7.713958073499213
ltoes -14.599205661338047
rfemur 7.353677282272514 7.625929770737093 34.1994277787868
rtibia 60.349199200141285
rfoot 23.74465278714742 -14.579561148474948
rtoes 18.41537232453006
lowerback nan 2.4137825081152653 4.191532676056616
upperback -1.2752825048225782 3.831582755331336 1.6231501542610254
thorax -7.958132022071041 1.7148011839661073 -1.4311864772140959
lowerneck -19.770800199118693 -4.947230157587956 -1.6145751551451253
upperneck 14.11997610103518 -7.213400769805938 2.3307995323004462
head 7.91683829093754 -3.1251290463877366 0.34926027998919207
lclavicle -3.0690681060705883e-15 -3.81429157211937e-14
lhumerus -66.70487867383078 -5.123875073546342 95.81212949588613
lradius 103.97794411214223
lwrist 34.1343213531612
lhand -23.627584459888826 -0.10831041425977639
lfingers nan
lthumb 2.8544091612724865 29.88539603335959
rclavicle -2.8553902469216837e-15 -3.818782716154436e-14
rhumerus -44.84137672124673 17.221782239979067 -101.0570226024319
rradius 115.66941485782856
rwrist -3.3326503158710112
rhand -19.29963072715106 nan
rfingers nan
rthumb 7.0935242938860945 11.76126802101145
29
root -0.5264881513439906 17.58422041209279 -13.670607897015694 3.000228404143045 2.841262636931498 -3.3070105565066354
lfemur -27.997592835561328 -3.2257638909519115 -19.38902199486362
ltibia 22.809651521263792
lfoot 5.021122932242399 -9.401504968814239
ltoes -13.790979651346976
rfemur 5.710609036226224 6.270014207980086 33.33445249098297
rtibia 64.6160097839573
rfoot 24.496041181994205 -15.763620048257607
rtoes 18.62314095504055
lowerback nan 2.1143734619204806 3.6798134748850706
upperback -1.0057800793125382 3.419454739262504 1.4624143607099602
thorax -8.123843457724526 1.529314785737034 -1.3470633609282945
lowerneck -20.01150861631654 -4.940264188499491 -1.5507456240058404
upperneck 14.099804818744072 -7.289481233191117 2.426264570977491
head 7.954514997958364 -3.1442081032136144 0.37115650180035675
lclavicle 2.8171715055814912e-14 1.1170027467523745e-14
lhumerus -65.48349490878121 -6.076528291364443 96.17330778564104
lradius 103.92236999002508
lwrist 33.93245444954642
lhand -24.05742019620526 0.1092584278784956
lfingers nan
lthumb 2.442742326421472 30.111414327630126
rclavicle 2.8376058744646903e-14 1.1205057748756423e-14
rhumerus -45.109300880314834 16.478974829031625 -101.27561770773308
rradius 114.82854096553665
rwrist -2.204985604457696
rhand -19.978660344616422 nan
rfingers nan
rthumb 6.461659365454299 11.236869796072735
30
root -0.5809907952131068 17.470565083182706 -12.13600792515503 2.2993222339840385 3.9139854855455205 -2.8478995316651132
lfemur -27.64692315440186 -2.7322050490167076 -20.350806250867123
ltibia 23.56350697957337
lfoot 4.68753751481277 -11.189362220017278
ltoes -16.48192255527369
rfemur 4.008461856731241 4.408124352886813 32.454869083218796
rtibia 69.03688636207163
rfoot 24.209948326800546 -16.928764497728917
rtoes 18.29102916713791
lowerback nan 1.6628933105068393 3.265637213591824
upperback -0.6834792771629381 2.861407340406016 1.2481314737640608
thorax -8.665666979469894 1.2525953717676022 -1.241358545519353
lowerneck -20.594754170022863 -4.988041156511259 -1.2633682519804066
upperneck 14.307285716425163 -7.416292364820833 2.4233640369685094
head 8.06501248807677 -3.1681538707207446 0.325803736287549
lclavicle -9.432070805799974e-15 1.3194814472499704e-14
lhumerus -64.06380057364063 -7.230404363004283 96.50217562899057
lradius 103.84350144888904
lwrist 33.55081683467483
lhand -24.036227603959293 0.2765394355867299
lfingers nan
lthumb 2.4665897866555224 30.28950920510552
rclavicle -9.26009531374919e-15 1.3276164155133436e-14
rhumerus -45.48559055921058 15.676496509535443 -101.64733395309683
rradius 114.05026641536496
rwrist -1.4555181480513024
rhand -20.696735331169943 nan
rfingers nan
rthumb 5.770534879182775 11.312236560323424
31
root -0.6268430667196541 17.36360695669095 -11.38363601116349 2.101976687796428 4.367074021214252 -2.540416964331322
lfemur -27.326482606305667 -2.526924250953023 -20.81252439721159
ltibia 24.721132579304033
lfoot 4.254927510536871 -11.760685095316543
ltoes -18.112201792000917
rfemur 2.495617721400823 3.218370155821801 31.718355452954583
rtibia 73.29589799648875
rfoot 23.845644335118017 -18.28293736200114
rtoes 16.36301800392643
lowerback nan 1.4261290550044663 2.8365552618748926
upperback -0.5672822347461784 2.5236001062339435 1.1766185008087446
thorax -8.785340925061945 1.1113102017342276 -1.0577824037446426
lowerneck -20.07245923709758 -4.983278813406065 -1.2667946668210766
upperneck 13.980513805929217 -7.465041050184123 2.558649319063301
head 7.933386786485743 -3.1510372511929408 0.40136666383764574
lclavicle -1.5257943410951264e-14 -1.198332495046247e-15
lhumerus -63.057871082503254 -8.113104051768065 96.87328637864657
lradius 103.98163661761524
lwrist 32.84722232039011
lhand -23.76334724124689 0.2292409891860776
lfingers nan
lthumb 2.7333406559787243 30.245810779891652
rclavicle -1.488879415828487e-14 -7.861002118196391e-16
rhumerus -46.12216328892394 15.015445330418553 -102.08688541322137
rradius 113.21574865989811
rwrist -2.6243879979049085
rhand -20.862835903732677 nan
rfingers nan
rthumb 5.622412207152831 11.172532365352794
